Coordinates
version=1
nRows=15
nColumns=34
inDegrees=no

Units are S.I. units (second, meters, Newtons, ...)
If the header above contains a line with 'inDegrees', this indicates whether rotational values are in degrees (yes) or radians (no).

endheader
time	pelvis_tilt	pelvis_list	pelvis_rotation	pelvis_tx	pelvis_ty	pelvis_tz	hip_flexion_r	hip_adduction_r	hip_rotation_r	knee_angle_r	ankle_angle_r	subtalar_angle_r	mtp_angle_r	hip_flexion_l	hip_adduction_l	hip_rotation_l	knee_angle_l	ankle_angle_l	subtalar_angle_l	mtp_angle_l	lumbar_extension	lumbar_bending	lumbar_rotation	arm_flex_r	arm_add_r	arm_rot_r	elbow_flex_r	pro_sup_r	arm_flex_l	arm_add_l	arm_rot_l	elbow_flex_l	pro_sup_l
0.83	0.271736	0.09877	-0.0464023	0.9977	0.924174	-0.280716	0.230979	-0.221979	-0.13189	0.965	0.0584756	-0.192983	-0.0834655	-0.275653	0.182664	-0.0548105	0.177938	0.234231	0.00338395	-0.0836424	-0.560908	-0.138679	-0.179179	0.139757	-0.134815	0.130459	0.390822	1.14179	0.384847	-0.295749	0.233708	0.533085	1.15637
0.84	0.272573	0.0951558	-0.0418413	1.01052	0.924362	-0.28141	0.234342	-0.216043	-0.148095	0.903157	0.0639943	-0.190786	-0.0834629	-0.307668	0.180221	-0.0392612	0.152674	0.230806	0.000308602	-0.0836397	-0.56329	-0.131795	-0.186645	0.131597	-0.137194	0.12381	0.387957	1.1347	0.407992	-0.300886	0.230062	0.552093	1.16874
0.85	0.27356	0.0911956	-0.0383618	1.02339	0.924288	-0.281908	0.235243	-0.208292	-0.164511	0.836917	0.0654572	-0.191284	-0.0834603	-0.340373	0.177073	-0.0241942	0.126556	0.226778	-0.0034632	-0.083637	-0.565574	-0.125368	-0.192617	0.123706	-0.139603	0.117538	0.385069	1.12694	0.430848	-0.306099	0.226947	0.57107	1.17995
0.86	0.274662	0.0867645	-0.0358885	1.03631	0.923949	-0.282212	0.23372	-0.198446	-0.181118	0.766577	0.063447	-0.193025	-0.0834577	-0.373422	0.173091	-0.00982694	0.100175	0.22247	-0.00764711	-0.0836344	-0.567744	-0.119246	-0.197157	0.116155	-0.141985	0.111712	0.382036	1.11878	0.453298	-0.311418	0.22476	0.590051	1.18967
0.87	0.275736	0.0818163	-0.0342554	1.04929	0.923338	-0.282329	0.229987	-0.1864	-0.197821	0.692614	0.0588152	-0.194275	-0.0834551	-0.4062	0.168208	0.00356194	0.0743639	0.21833	-0.0118313	-0.0836317	-0.569694	-0.113302	-0.200426	0.109001	-0.14426	0.106332	0.37876	1.11053	0.475236	-0.316872	0.223737	0.60906	1.19774
0.88	0.27654	0.0763993	-0.0332202	1.06234	0.922446	-0.282277	0.224472	-0.172245	-0.214357	0.615761	0.0526115	-0.193266	-0.0834525	-0.437846	0.162434	0.0156431	0.0501488	0.214902	-0.0154985	-0.083629	-0.571233	-0.107457	-0.202683	0.102299	-0.146337	0.101339	0.375166	1.10254	0.496572	-0.322487	0.223961	0.628108	1.20416
0.89	0.276754	0.0706546	-0.0324851	1.07545	0.921262	-0.282078	0.217814	-0.156281	-0.230212	0.537066	0.0459906	-0.188464	-0.0834499	-0.467339	0.155871	0.0260807	0.028644	0.212762	-0.0180923	-0.0836264	-0.57211	-0.101689	-0.204276	0.0961076	-0.148113	0.0966437	0.371206	1.09509	0.517244	-0.328284	0.225382	0.647178	1.20913
0.9	0.276018	0.0647999	-0.0317225	1.08861	0.919787	-0.281773	0.210823	-0.138999	-0.244586	0.457916	0.0401066	-0.178816	-0.0834473	-0.49363	0.148699	0.0345911	0.0109148	0.21243	-0.0191054	-0.0836237	-0.572057	-0.0960195	-0.205606	0.0904922	-0.149489	0.0921351	0.366858	1.08836	0.53722	-0.334261	0.227855	0.666219	1.21294
0.91	0.273999	0.0590949	-0.0306039	1.10182	0.918022	-0.281411	0.204398	-0.121042	-0.256422	0.380014	0.0360034	-0.163913	-0.0834447	-0.515809	0.14115	0.0409969	-0.00217225	0.214288	-0.0181633	-0.083621	-0.570836	-0.0904934	-0.207087	0.0855219	-0.150392	0.0876984	0.362126	1.08243	0.556487	-0.340391	0.231183	0.685142	1.21595
0.92	0.270458	0.0537963	-0.0288299	1.1151	0.915974	-0.281034	0.199403	-0.103143	-0.264524	0.305302	0.0345146	-0.144054	-0.0834421	-0.533273	0.133468	0.0452462	-0.0100672	0.218513	-0.0150683	-0.0836184	-0.568296	-0.0851462	-0.209098	0.0812552	-0.150783	0.083215	0.357039	1.07724	0.575037	-0.346603	0.235159	0.703822	1.21854
0.93	0.265319	0.0491164	-0.0261622	1.12846	0.913667	-0.280678	0.196548	-0.0860625	-0.26774	0.235846	0.0361809	-0.12019	-0.0834395	-0.545846	0.12587	0.0473673	-0.0125663	0.225073	-0.00976688	-0.0836157	-0.564409	-0.0799862	-0.211927	0.0777207	-0.150675	0.0785557	0.351647	1.07271	0.592839	-0.352785	0.239596	0.722103	1.22103
0.94	0.258727	0.0451789	-0.0224486	1.14192	0.911149	-0.280369	0.19624	-0.0704842	-0.265206	0.17366	0.0411839	-0.0937507	-0.0834369	-0.553821	0.118492	0.047365	-0.00973685	0.233769	-0.00224258	-0.083613	-0.559309	-0.0749726	-0.215737	0.0748983	-0.150128	0.0735709	0.346015	1.06868	0.609811	-0.35878	0.244341	0.739811	1.22367
0.95	0.251092	0.0419674	-0.0176278	1.1555	0.908497	-0.280124	0.198446	-0.0568945	-0.256575	0.120469	0.0492924	-0.0663895	-0.0834343	-0.557896	0.111316	0.0450885	-0.0018212	0.244323	0.00764949	-0.0836104	-0.553312	-0.0699779	-0.220531	0.072703	-0.149254	0.0680825	0.340218	1.06501	0.625804	-0.364398	0.249272	0.756767	1.22665
0.96	0.24305	0.0393074	-0.0117235	1.16922	0.905799	-0.279952	0.202647	-0.0454825	-0.242161	0.0774735	0.0598264	-0.0397581	-0.0834317	-0.559012	0.104134	0.0401439	0.0108517	0.256445	0.0203064	-0.0836077	-0.546887	-0.0647804	-0.226145	0.0709788	-0.148194	0.0618861	0.334336	1.06156	0.640589	-0.369429	0.254284	0.772818	1.23009
0.97	0.235335	0.0368848	-0.00481964	1.18313	0.903137	-0.279856	0.207936	-0.036083	-0.222922	0.0451433	0.0716398	-0.0153766	-0.0834291	-0.558195	0.0965271	0.0318858	0.027972	0.269861	0.0364051	-0.0836051	-0.540553	-0.0590714	-0.232271	0.0695131	-0.147103	0.0547716	0.328449	1.05819	0.653885	-0.373661	0.25929	0.787854	1.23408
